<?xml version="1.0"?>
<svg fill="#ffa500" xmlns="http://www.w3.org/2000/svg" id="Icons" viewBox="0 0 74 74" width="512" height="512"><path d="M67,69H7a5.006,5.006,0,0,1-5-5V61a1,1,0,0,1,1-1H71a1,1,0,0,1,1,1v3A5.006,5.006,0,0,1,67,69ZM4,62v2a3,3,0,0,0,3,3H67a3,3,0,0,0,3-3V62Z"/><path d="M66,62H8a1,1,0,0,1-1-1V59a30,30,0,0,1,60,0v2A1,1,0,0,1,66,62ZM9,60H65V59A28,28,0,0,0,9,59Z"/><path d="M41.05,31.28a1,1,0,0,1-.956-1.3l1.5-4.827a.486.486,0,0,0-.042-.384.515.515,0,0,0-.328-.248,17.371,17.371,0,0,0-8.449,0,.515.515,0,0,0-.328.248.486.486,0,0,0-.042.384l1.5,4.827a1,1,0,0,1-1.91.593L30.5,25.75a2.465,2.465,0,0,1,.209-1.958,2.529,2.529,0,0,1,1.588-1.208,19.358,19.358,0,0,1,9.413,0,2.529,2.529,0,0,1,1.588,1.208A2.465,2.465,0,0,1,43.5,25.75L42,30.576A1,1,0,0,1,41.05,31.28Z"/><path d="M54.9,26.24a1,1,0,0,1-.759-.348l-1.706-1.985a3.882,3.882,0,0,1,.672-5.694,1.882,1.882,0,0,0,.383-2.7l-1.856-2.378a1,1,0,0,1,1.577-1.23l1.856,2.378a3.882,3.882,0,0,1-.79,5.55,1.882,1.882,0,0,0-.326,2.769l1.706,1.985A1,1,0,0,1,54.9,26.24Z"/><path d="M21.575,26.24a1,1,0,0,1-.759-.348l-1.707-1.985a3.883,3.883,0,0,1,.672-5.694,1.881,1.881,0,0,0,.383-2.7l-1.856-2.378a1,1,0,0,1,1.577-1.23l1.856,2.378a3.882,3.882,0,0,1-.79,5.55,1.883,1.883,0,0,0-.326,2.769l1.707,1.985a1,1,0,0,1-.758,1.652Z"/><path d="M38.239,19.718a1,1,0,0,1-.759-.348l-1.706-1.985a3.883,3.883,0,0,1,.672-5.694,1.883,1.883,0,0,0,.384-2.7L34.974,6.615a1,1,0,0,1,1.576-1.23l1.856,2.378a3.882,3.882,0,0,1-.79,5.55,1.882,1.882,0,0,0-.325,2.769L39,18.066a1,1,0,0,1-.758,1.652Z"/></svg>
